<svg xmlns="http://www.w3.org/2000/svg" xmlns:xlink="http://www.w3.org/1999/xlink" width="264.308" height="65.101" viewBox="0 0 264.308 65.101">
  <defs>
    <clipPath id="clip-path">
      <path id="path183" d="M728.148-1396.977H992.456v-65.1H728.148Z" transform="translate(-728.148 1462.077)" fill="#fff"/>
    </clipPath>
  </defs>
  <g id="celance_logo" data-name="celance logo" transform="translate(7.618 14.69)">
    <g id="g11" transform="translate(-7.618 -14.69)">
      <g id="g3060">
        <g id="g177">
          <g id="g179" clip-path="url(#clip-path)">
            <g id="g185" transform="translate(72.023 20.885)">
              <path id="path187" d="M-10.02-11.408a16.679,16.679,0,0,1-6.248,1.136c-6.894,0-10.921-4.379-10.921-11.293,0-7.54,4.6-11.533,11-11.533a14.9,14.9,0,0,1,6.116,1.228l1.244-4.567a17.541,17.541,0,0,0-7.6-1.388c-9.589,0-16.792,6.233-16.792,16.545,0,9.552,6.06,15.8,16.012,15.8A20.364,20.364,0,0,0-9.072-6.891Z" transform="translate(33.222 37.825)" fill="#fff"/>
            </g>
            <g id="g189" transform="translate(99.135 29.573)">
              <path id="path191" d="M-2.365-4.074C-2.113-6.393-.644-9.6,2.882-9.6c3.838,0,4.75,3.423,4.726,5.522ZM12.8-.082a11.864,11.864,0,0,0,.2-2.4c0-4.965-2.4-11.02-9.762-11.02-7.29,0-11.083,5.917-11.083,12.169,0,6.943,4.31,11.489,11.666,11.489A20.545,20.545,0,0,0,11.74,8.716l-.847-3.944A17.273,17.273,0,0,1,4.641,5.823c-3.669,0-6.843-1.8-7-5.905Z" transform="translate(7.843 13.506)" fill="#fff" fill-rule="evenodd"/>
            </g>
            <path id="path193" d="M907.876-1400.827h5.733v-33.044h-5.733Z" transform="translate(-782.355 1453.57)" fill="#fff"/>
            <g id="g195" transform="translate(136.8 29.572)">
              <path id="path197" d="M-5.87-6.566a4.288,4.288,0,0,1-.161,1.243,4.665,4.665,0,0,1-4.484,3.14A3.027,3.027,0,0,1-13.78-5.449c0-3.449,3.865-4.3,7.91-4.248ZM-.3-12.216c0-4.972-2.075-9.555-9.343-9.555a16.366,16.366,0,0,0-8.213,2.012l1.131,3.716a12.133,12.133,0,0,1,6.093-1.689c4.012-.015,4.6,2.462,4.6,3.952v.371c-8.346-.031-13.438,2.862-13.438,8.58,0,3.455,2.544,6.74,7.142,6.74A8.3,8.3,0,0,0-5.64-1.125h.13L-5.115,1.4H.054A33.981,33.981,0,0,1-.3-4.059Z" transform="translate(19.462 21.771)" fill="#fff" fill-rule="evenodd"/>
            </g>
            <g id="g199" transform="translate(162.537 29.573)">
              <path id="path201" d="M-.079-10.006H5.654V-23.341a5.62,5.62,0,0,1,.262-1.816,4.76,4.76,0,0,1,4.454-3.362c3.132,0,4.328,2.479,4.328,5.73v12.783H20.43V-23.465c0-7.169-4.1-9.711-8.056-9.711a8.236,8.236,0,0,0-7.216,3.912H5.022l-.282-3.4h-5c.1,1.961.183,4.122.183,6.74Z" transform="translate(0.262 33.176)" fill="#fff"/>
            </g>
            <g id="g203" transform="translate(188.379 29.573)">
              <path id="path205" d="M-2.363-4.074C-2.1-6.393-.638-9.6,2.888-9.6c3.837,0,4.747,3.423,4.727,5.522ZM12.807-.082a12.042,12.042,0,0,0,.2-2.4c0-4.965-2.4-11.02-9.768-11.02-7.288,0-11.079,5.917-11.079,12.169,0,6.943,4.31,11.489,11.662,11.489a20.558,20.558,0,0,0,7.918-1.436L10.9,4.771A17.265,17.265,0,0,1,4.645,5.823c-3.665,0-6.843-1.8-7-5.905Z" transform="translate(7.835 13.506)" fill="#fff" fill-rule="evenodd"/>
            </g>
            <g id="g207" transform="translate(213.562 29.572)">
              <path id="path209" d="M0-9.531a14.672,14.672,0,0,0,6.9,1.59c5.985,0,9.205-2.983,9.205-7.113-.019-3.341-1.923-5.444-6.046-6.9C7.2-23,6.1-23.689,6.1-25.13c0-1.392,1.139-2.4,3.172-2.4a10.292,10.292,0,0,1,4.8,1.3l1.134-4.021A13.027,13.027,0,0,0,9.2-31.6C3.905-31.6.6-28.494.6-24.508c-.02,2.683,1.828,5.1,6.259,6.614,2.786.991,3.727,1.77,3.727,3.306,0,1.485-1.134,2.542-3.649,2.542A12.557,12.557,0,0,1,1.154-13.7Z" transform="translate(0 31.601)" fill="#fff"/>
            </g>
            <g id="g211" transform="translate(233.747 29.573)">
              <path id="path213" d="M-2.364-4.074C-2.107-6.393-.643-9.6,2.883-9.6c3.841,0,4.751,3.423,4.73,5.522ZM12.805-.082a12.089,12.089,0,0,0,.2-2.4c0-4.965-2.4-11.02-9.765-11.02-7.288,0-11.081,5.917-11.081,12.169,0,6.943,4.31,11.489,11.669,11.489a20.553,20.553,0,0,0,7.918-1.436l-.854-3.944A17.251,17.251,0,0,1,4.642,5.823c-3.663,0-6.841-1.8-7-5.905Z" transform="translate(7.839 13.506)" fill="#fff" fill-rule="evenodd"/>
            </g>
          </g>
        </g>
        <g id="g215" transform="translate(7.192 11.754)">
          <g id="g217">
            <g id="g223">
              <g id="g225">
                <path id="path235" d="M738.446-1421.3a24.1,24.1,0,0,0,.377,4.252h0c6.658-16.805,27.521-22.1,37.522-23.72h0a23.843,23.843,0,0,0-13.95-4.482h0a23.948,23.948,0,0,0-23.949,23.95m42.786-14.788c-7.184.888-24.647,6.034-27.962,15.873h0c-2.327,6.9,3.431,9.1,13.276,6.341h0a49.272,49.272,0,0,0,11.111-4.543h0v8.037a44.349,44.349,0,0,1-13.895,6.042h0a43.732,43.732,0,0,1-16.734,1.4h0a23.884,23.884,0,0,0,15.366,5.58h0A23.941,23.941,0,0,0,786.34-1421.3h0a23.828,23.828,0,0,0-5.1-14.788h0Z" transform="translate(-738.446 1445.248)" fill="#fff"/>
              </g>
            </g>
          </g>
        </g>
      </g>
    </g>
  </g>
</svg>
