<svg xmlns="http://www.w3.org/2000/svg" xmlns:xlink="http://www.w3.org/1999/xlink" width="574.159" height="195.293" viewBox="0 0 574.159 195.293">
  <defs>
    <filter id="Path_1176" x="0" y="0" width="574.159" height="195.293" filterUnits="userSpaceOnUse">
      <feOffset dy="-3" input="SourceAlpha"/>
      <feGaussianBlur stdDeviation="5" result="blur"/>
      <feFlood flood-opacity="0.349"/>
      <feComposite operator="in" in2="blur"/>
      <feComposite in="SourceGraphic"/>
    </filter>
  </defs>
  <g id="Living_the_Model" data-name="Living the Model" transform="translate(15 -808.207)">
    <g transform="matrix(1, 0, 0, 1, -15, 808.21)" filter="url(#Path_1176)">
      <path id="Path_1176-2" data-name="Path 1176" d="M1551.026-4931l-42.816-34.221H1400.482l-68.216-65.3-81.264-5-74.952-59.768H1008.794V-4931Z" transform="translate(-993.29 5113.79)" fill="#133b49" stroke="#2d5c6e" stroke-width="1" opacity="0.5"/>
    </g>
    <g id="Group_1137" data-name="Group 1137" transform="translate(13 293.753)">
      <path id="Polygon_38" data-name="Polygon 38" d="M93.878,0l31.293,55.51-31.293,55.51H31.293L0,55.51,31.293,0Z" transform="matrix(0.946, -0.326, 0.326, 0.946, 9.767, 585.937)" fill="#ed207f"/>
      <path id="Polygon_37" data-name="Polygon 37" d="M93.878,0l31.293,55.51-31.293,55.51H31.293L0,55.51,31.293,0Z" transform="matrix(0.946, -0.326, 0.326, 0.946, 8, 580.044)" fill="#fa9d1c"/>
      <g id="Group_1136" data-name="Group 1136" transform="translate(34.063 553.092)">
        <g id="Polygon_20" data-name="Polygon 20" transform="matrix(0.809, 0.588, -0.588, 0.809, 45.696, 34.568)" fill="none" stroke-linecap="round" stroke-linejoin="round">
          <path d="M24.845,0l8.282,14.043L24.845,28.086H8.282L0,14.043,8.282,0Z" stroke="none"/>
          <path d="M 9.424215316772461 2.000003814697266 L 2.321891784667969 14.04307460784912 L 9.424205780029297 26.08614349365234 L 23.70300674438477 26.08614349365234 L 30.80532836914062 14.0430736541748 L 23.70300674438477 2.000003814697266 L 9.424215316772461 2.000003814697266 M 8.281810760498047 3.814697265625e-06 L 24.84540939331055 3.814697265625e-06 L 33.12722015380859 14.0430736541748 L 24.84540939331055 28.08614349365234 L 8.28179931640625 28.08614349365234 L 0 14.0430736541748 L 8.281810760498047 3.814697265625e-06 Z" stroke="none" fill="#fda831"/>
        </g>
        <g id="Polygon_21" data-name="Polygon 21" transform="matrix(0.809, 0.588, -0.588, 0.809, 51.457, 0)" fill="none" stroke-linecap="round" stroke-linejoin="round">
          <path d="M13.5,0,18,7.562l-4.5,7.562h-9L0,7.562,4.5,0Z" stroke="none"/>
          <path d="M 5.638006210327148 2.000004768371582 L 2.327502250671387 7.561654567718506 L 5.638006210327148 13.12330436706543 L 12.36591720581055 13.12330436706543 L 15.67642116546631 7.561654567718506 L 12.36591720581055 2.000004768371582 L 5.638006210327148 2.000004768371582 M 4.500981330871582 4.76837158203125e-06 L 13.5029411315918 4.76837158203125e-06 L 18.00392150878906 7.561654567718506 L 13.5029411315918 15.12330436706543 L 4.500981330871582 15.12330436706543 L 1.9073486328125e-06 7.561654567718506 L 4.500981330871582 4.76837158203125e-06 Z" stroke="none" fill="#fda831"/>
        </g>
        <g id="Polygon_24" data-name="Polygon 24" transform="matrix(0.809, 0.588, -0.588, 0.809, 44.855, 78.498)" fill="none" stroke-linecap="round" stroke-linejoin="round">
          <path d="M15.663,0l5.221,8.642-5.221,8.642H5.221L0,8.642,5.221,0Z" stroke="none"/>
          <path d="M 6.349480628967285 2.000003814697266 L 2.336673736572266 8.64189338684082 L 6.349480628967285 15.28378295898438 L 14.53507232666016 15.28378295898438 L 18.54787826538086 8.64189338684082 L 14.53507232666016 2.000003814697266 L 6.349480628967285 2.000003814697266 M 5.221136093139648 3.814697265625e-06 L 15.66341590881348 3.814697265625e-06 L 20.88455581665039 8.64189338684082 L 15.66341590881348 17.28378295898438 L 5.221136093139648 17.28378295898438 L -3.814697265625e-06 8.64189338684082 L 5.221136093139648 3.814697265625e-06 Z" stroke="none" fill="#fda831"/>
        </g>
        <g id="Polygon_25" data-name="Polygon 25" transform="matrix(0.809, 0.588, -0.588, 0.809, 12.675, 61.419)" fill="none" stroke-linecap="round" stroke-linejoin="round">
          <path d="M9.722,0l3.241,5.4L9.722,10.8H3.241L0,5.4,3.241,0Z" stroke="none"/>
          <path d="M 4.373087882995605 2.000001907348633 L 2.332385063171387 5.401181697845459 L 4.373087882995605 8.802361488342285 L 8.589736938476562 8.802361488342285 L 10.6304407119751 5.401181697845459 L 8.589736938476562 2.000001907348633 L 4.373087882995605 2.000001907348633 M 3.240702629089355 1.9073486328125e-06 L 9.722123146057129 1.9073486328125e-06 L 12.96282291412354 5.401181697845459 L 9.722123146057129 10.80236148834229 L 3.240702629089355 10.80236148834229 L 2.86102294921875e-06 5.401181697845459 L 3.240702629089355 1.9073486328125e-06 Z" stroke="none" fill="#fda831"/>
        </g>
        <g id="Polygon_26" data-name="Polygon 26" transform="matrix(0.809, 0.588, -0.588, 0.809, 22.364, 20.369)" fill="none" stroke-linecap="round" stroke-linejoin="round">
          <path d="M11.883,0l3.961,6.481-3.961,6.481H3.961L0,6.481,3.961,0Z" stroke="none"/>
          <path d="M 5.08253288269043 1.999999046325684 L 2.34388542175293 6.481419086456299 L 5.08253288269043 10.96283912658691 L 10.76092147827148 10.96283912658691 L 13.49956893920898 6.481419086456299 L 10.76092147827148 1.999999046325684 L 5.08253288269043 1.999999046325684 M 3.960866928100586 -9.5367431640625e-07 L 11.88258743286133 -9.5367431640625e-07 L 15.84345722198486 6.481419086456299 L 11.88258743286133 12.96283912658691 L 3.960866928100586 12.96283912658691 L -2.86102294921875e-06 6.481419086456299 L 3.960866928100586 -9.5367431640625e-07 Z" stroke="none" fill="#fda831"/>
        </g>
        <g id="Polygon_27" data-name="Polygon 27" transform="matrix(0.809, 0.588, -0.588, 0.809, 5.08, 30.27)" fill="none" stroke-linecap="round" stroke-linejoin="round">
          <path d="M8.1,0l2.7,4.321L8.1,8.642H2.7L0,4.321,2.7,0Z" stroke="none"/>
          <path d="M 3.254837989807129 0.9999966621398926 L 1.17924690246582 4.32094669342041 L 3.254837989807129 7.641896724700928 L 7.547516822814941 7.641896724700928 L 9.62310791015625 4.32094669342041 L 7.547516822814941 0.9999966621398926 L 3.254837989807129 0.9999966621398926 M 2.700587272644043 -2.86102294921875e-06 L 8.101767539978027 -2.86102294921875e-06 L 10.80235767364502 4.32094669342041 L 8.101767539978027 8.64189624786377 L 2.700587272644043 8.64189624786377 L -2.86102294921875e-06 4.32094669342041 L 2.700587272644043 -2.86102294921875e-06 Z" stroke="none" fill="#fda831"/>
        </g>
        <g id="Polygon_28" data-name="Polygon 28" transform="matrix(0.809, 0.588, -0.588, 0.809, 11.16, 79.641)" fill="none" stroke-linecap="round" stroke-linejoin="round">
          <path d="M8.1,0l2.7,4.321L8.1,8.642H2.7L0,4.321,2.7,0Z" stroke="none"/>
          <path d="M 3.254837989807129 0.9999966621398926 L 1.17924690246582 4.32094669342041 L 3.254837989807129 7.641896724700928 L 7.547516822814941 7.641896724700928 L 9.62310791015625 4.32094669342041 L 7.547516822814941 0.9999966621398926 L 3.254837989807129 0.9999966621398926 M 2.700587272644043 -2.86102294921875e-06 L 8.101767539978027 -2.86102294921875e-06 L 10.80235767364502 4.32094669342041 L 8.101767539978027 8.64189624786377 L 2.700587272644043 8.64189624786377 L -2.86102294921875e-06 4.32094669342041 L 2.700587272644043 -2.86102294921875e-06 Z" stroke="none" fill="#fda831"/>
        </g>
        <g id="Polygon_29" data-name="Polygon 29" transform="matrix(0.809, 0.588, -0.588, 0.809, 77.933, 17.628)" fill="none" stroke-linecap="round" stroke-linejoin="round">
          <path d="M8.1,0l2.7,4.321L8.1,8.642H2.7L0,4.321,2.7,0Z" stroke="none"/>
          <path d="M 3.254837989807129 0.9999966621398926 L 1.17924690246582 4.32094669342041 L 3.254837989807129 7.641896724700928 L 7.547516822814941 7.641896724700928 L 9.62310791015625 4.32094669342041 L 7.547516822814941 0.9999966621398926 L 3.254837989807129 0.9999966621398926 M 2.700587272644043 -2.86102294921875e-06 L 8.101767539978027 -2.86102294921875e-06 L 10.80235767364502 4.32094669342041 L 8.101767539978027 8.64189624786377 L 2.700587272644043 8.64189624786377 L -2.86102294921875e-06 4.32094669342041 L 2.700587272644043 -2.86102294921875e-06 Z" stroke="none" fill="#fda831"/>
        </g>
        <g id="Polygon_30" data-name="Polygon 30" transform="matrix(0.809, 0.588, -0.588, 0.809, 92.88, 28.542)" fill="none" stroke-linecap="round" stroke-linejoin="round">
          <path d="M8.1,0l2.7,4.321L8.1,8.642H2.7L0,4.321,2.7,0Z" stroke="none"/>
          <path d="M 3.254837989807129 0.9999966621398926 L 1.17924690246582 4.32094669342041 L 3.254837989807129 7.641896724700928 L 7.547516822814941 7.641896724700928 L 9.62310791015625 4.32094669342041 L 7.547516822814941 0.9999966621398926 L 3.254837989807129 0.9999966621398926 M 2.700587272644043 -2.86102294921875e-06 L 8.101767539978027 -2.86102294921875e-06 L 10.80235767364502 4.32094669342041 L 8.101767539978027 8.64189624786377 L 2.700587272644043 8.64189624786377 L -2.86102294921875e-06 4.32094669342041 L 2.700587272644043 -2.86102294921875e-06 Z" stroke="none" fill="#fda831"/>
        </g>
        <g id="Polygon_31" data-name="Polygon 31" transform="matrix(0.809, 0.588, -0.588, 0.809, 92.88, 47.343)" fill="none" stroke-linecap="round" stroke-linejoin="round">
          <path d="M8.1,0l2.7,4.321L8.1,8.642H2.7L0,4.321,2.7,0Z" stroke="none"/>
          <path d="M 3.254837989807129 0.9999966621398926 L 1.17924690246582 4.32094669342041 L 3.254837989807129 7.641896724700928 L 7.547516822814941 7.641896724700928 L 9.62310791015625 4.32094669342041 L 7.547516822814941 0.9999966621398926 L 3.254837989807129 0.9999966621398926 M 2.700587272644043 -2.86102294921875e-06 L 8.101767539978027 -2.86102294921875e-06 L 10.80235767364502 4.32094669342041 L 8.101767539978027 8.64189624786377 L 2.700587272644043 8.64189624786377 L -2.86102294921875e-06 4.32094669342041 L 2.700587272644043 -2.86102294921875e-06 Z" stroke="none" fill="#fda831"/>
        </g>
        <g id="Polygon_32" data-name="Polygon 32" transform="matrix(0.809, 0.588, -0.588, 0.809, 62.006, 96.578)" fill="none" stroke-linecap="round" stroke-linejoin="round">
          <path d="M8.1,0l2.7,4.321L8.1,8.642H2.7L0,4.321,2.7,0Z" stroke="none"/>
          <path d="M 3.254837989807129 0.9999966621398926 L 1.17924690246582 4.32094669342041 L 3.254837989807129 7.641896724700928 L 7.547516822814941 7.641896724700928 L 9.62310791015625 4.32094669342041 L 7.547516822814941 0.9999966621398926 L 3.254837989807129 0.9999966621398926 M 2.700587272644043 -2.86102294921875e-06 L 8.101767539978027 -2.86102294921875e-06 L 10.80235767364502 4.32094669342041 L 8.101767539978027 8.64189624786377 L 2.700587272644043 8.64189624786377 L -2.86102294921875e-06 4.32094669342041 L 2.700587272644043 -2.86102294921875e-06 Z" stroke="none" fill="#fda831"/>
        </g>
        <g id="Polygon_22" data-name="Polygon 22" transform="matrix(0.809, 0.588, -0.588, 0.809, 75.942, 30.967)" fill="none" stroke-linecap="round" stroke-linejoin="round">
          <path d="M13.5,0,18,7.562l-4.5,7.562h-9L0,7.562,4.5,0Z" stroke="none"/>
          <path d="M 5.638006210327148 2.000004768371582 L 2.327502250671387 7.561654567718506 L 5.638006210327148 13.12330436706543 L 12.36591720581055 13.12330436706543 L 15.67642116546631 7.561654567718506 L 12.36591720581055 2.000004768371582 L 5.638006210327148 2.000004768371582 M 4.500981330871582 4.76837158203125e-06 L 13.5029411315918 4.76837158203125e-06 L 18.00392150878906 7.561654567718506 L 13.5029411315918 15.12330436706543 L 4.500981330871582 15.12330436706543 L 1.9073486328125e-06 7.561654567718506 L 4.500981330871582 4.76837158203125e-06 Z" stroke="none" fill="#fda831"/>
        </g>
        <g id="Polygon_23" data-name="Polygon 23" transform="matrix(0.809, 0.588, -0.588, 0.809, 80.666, 75.618)" fill="none" stroke-linecap="round" stroke-linejoin="round">
          <path d="M10.262,0l3.421,5.761-3.421,5.761H3.421L0,5.761,3.421,0Z" stroke="none"/>
          <path d="M 4.559219360351562 2.000001907348633 L 2.325976371765137 5.761261463165283 L 4.559219360351562 9.52252197265625 L 9.123764038085938 9.52252197265625 L 11.35700702667236 5.761261463165283 L 9.123764038085938 2.000001907348633 L 4.559219360351562 2.000001907348633 M 3.420742034912109 1.9073486328125e-06 L 10.26224136352539 1.9073486328125e-06 L 13.68298149108887 5.761261463165283 L 10.26224136352539 11.52252101898193 L 3.420742034912109 11.52252101898193 L 1.9073486328125e-06 5.761261463165283 L 3.420742034912109 1.9073486328125e-06 Z" stroke="none" fill="#fda831"/>
        </g>
        <path id="Path_1138" data-name="Path 1138" d="M4876.216-2925.778l7.518-2.984" transform="translate(-4865.387 2961.365)" fill="none" stroke="#fda831" stroke-width="1"/>
        <path id="Path_1139" data-name="Path 1139" d="M4901.71-2926.69l8.767,12.768" transform="translate(-4871.793 2960.784)" fill="none" stroke="#fda831" stroke-width="2"/>
        <path id="Path_1140" data-name="Path 1140" d="M4935.086-2947.491l-1.193,21.843" transform="translate(-4881.529 2966.605)" fill="none" stroke="#fda831" stroke-width="2"/>
        <path id="Path_1141" data-name="Path 1141" d="M4950.138-2907.088l7.875-3.94" transform="translate(-4886.074 2956.402)" fill="none" stroke="#fda831" stroke-width="2"/>
        <path id="Path_1142" data-name="Path 1142" d="M4949.141-2883.6l14.8,15.635" transform="translate(-4885.796 2948.726)" fill="none" stroke="#fda831" stroke-width="2"/>
        <path id="Path_1143" data-name="Path 1143" d="M4929.8-2875.476l-.718,11.338" transform="translate(-4880.183 2946.451)" fill="none" stroke="#fda831" stroke-width="2"/>
        <path id="Path_1144" data-name="Path 1144" d="M4888.812-2882.076l17.308-6.327" transform="translate(-4868.912 2950.07)" fill="none" stroke="#fda831" stroke-width="2"/>
        <path id="Path_1145" data-name="Path 1145" d="M4880.808-2869.327l-1.013,6.7" transform="translate(-4866.388 2944.732)" fill="none" stroke="#fda831" stroke-width="1"/>
        <path id="Path_1146" data-name="Path 1146" d="M4971.4-2928.894l.388-5.506" transform="translate(-4892.021 2962.942)" fill="none" stroke="#fda831" stroke-width="1"/>
        <path id="Path_1147" data-name="Path 1147" d="M4981.2-2919.6l4.66-2.631" transform="translate(-4895.185 2958.817)" fill="none" stroke="#fda831" stroke-width="1"/>
        <path id="Path_1148" data-name="Path 1148" d="M4980.223-2908.727l5.324,4.13" transform="translate(-4894.536 2955.974)" fill="none" stroke="#fda831" stroke-width="1"/>
        <path id="Path_1149" data-name="Path 1149" d="M4938.58-2839.925l4.271,4.025" transform="translate(-4882.84 2936.504)" fill="none" stroke="#fda831" stroke-width="1"/>
      </g>
      <text id="LIVING_THE_MODEL-2" data-name="LIVING 
THE
MODEL" transform="translate(85 603.293)" fill="#fff" font-size="22" font-family="Roboto-MediumItalic, Roboto" font-weight="500" font-style="italic" letter-spacing="-0.045em"><tspan x="-33.602" y="0">LIVING </tspan><tspan fill="#fa127f" font-size="19"><tspan x="-16.633" y="16">THE</tspan></tspan><tspan x="-33.775" y="32">MODEL</tspan></text>
    </g>
  </g>
</svg>
