<svg xmlns="http://www.w3.org/2000/svg" xmlns:xlink="http://www.w3.org/1999/xlink" width="574.159" height="195.293" viewBox="0 0 574.159 195.293">
  <defs>
    <filter id="Path_1175" x="0" y="0" width="574.159" height="195.293" filterUnits="userSpaceOnUse">
      <feOffset dy="-3" input="SourceAlpha"/>
      <feGaussianBlur stdDeviation="5" result="blur"/>
      <feFlood flood-opacity="0.349"/>
      <feComposite operator="in" in2="blur"/>
      <feComposite in="SourceGraphic"/>
    </filter>
  </defs>
  <g id="Moving_to_the_core" data-name="Moving to the core" transform="translate(-1361.368 -808.207)">
    <g transform="matrix(1, 0, 0, 1, 1361.37, 808.21)" filter="url(#Path_1175)">
      <path id="Path_1175-2" data-name="Path 1175" d="M1008.794-4931l42.816-34.221h107.728l68.216-65.3,81.264-5,74.952-59.768h167.256V-4931Z" transform="translate(-992.37 5113.79)" fill="#133b49" stroke="#2d5c6e" stroke-width="1" opacity="0.5"/>
    </g>
    <g id="Group_1132" data-name="Group 1132" transform="translate(1791.662 878.687)">
      <g id="Group_1135" data-name="Group 1135" transform="translate(30.74 28.085)">
        <g id="Polygon_20" data-name="Polygon 20" transform="matrix(0.809, 0.588, -0.588, 0.809, 13.437, 10.164)" fill="none" stroke-linecap="round" stroke-linejoin="round">
          <path d="M7.306,0,9.741,4.129,7.306,8.259H2.435L0,4.129,2.435,0Z" stroke="none"/>
          <path d="M 3.006414890289307 0.9999995231628418 L 1.16094970703125 4.129259586334229 L 3.006414890289307 7.258519649505615 L 6.734395503997803 7.258519649505615 L 8.579860687255859 4.129259586334229 L 6.734395503997803 0.9999995231628418 L 3.006414890289307 0.9999995231628418 M 2.435204982757568 0 L 7.305604934692383 0 L 9.740815162658691 4.129259586334229 L 7.305604934692383 8.258519172668457 L 2.435204982757568 8.258519172668457 L -4.76837158203125e-06 4.129259586334229 L 2.435204982757568 0 Z" stroke="none" fill="#a7a7a7"/>
        </g>
        <g id="Polygon_21" data-name="Polygon 21" transform="matrix(0.809, 0.588, -0.588, 0.809, 15.131, 0)" fill="none" stroke-linecap="round" stroke-linejoin="round">
          <path d="M3.97,0,5.294,2.223,3.97,4.447H1.323L0,2.223,1.323,0Z" stroke="none"/>
          <path d="M 1.749860525131226 0.7499973773956299 L 0.8728084564208984 2.223447322845459 L 1.749860525131226 3.696897268295288 L 3.544058322906494 3.696897268295288 L 4.4211106300354 2.223447322845459 L 3.544058322906494 0.7499973773956299 L 1.749860525131226 0.7499973773956299 M 1.323479652404785 -2.86102294921875e-06 L 3.970439434051514 -2.86102294921875e-06 L 5.293919563293457 2.223447322845459 L 3.970439434051514 4.446897506713867 L 1.323479652404785 4.446897506713867 L -4.76837158203125e-07 2.223447322845459 L 1.323479652404785 -2.86102294921875e-06 Z" stroke="none" fill="#a7a7a7"/>
        </g>
        <g id="Polygon_24" data-name="Polygon 24" transform="matrix(0.809, 0.588, -0.588, 0.809, 13.189, 23.082)" fill="none" stroke-linecap="round" stroke-linejoin="round">
          <path d="M4.606,0,6.141,2.541,4.606,5.082H1.535L0,2.541,1.535,0Z" stroke="none"/>
          <path d="M 1.95836877822876 0.7500028610229492 L 0.8762617111206055 2.541083097457886 L 1.95836877822876 4.332162857055664 L 4.182577133178711 4.332162857055664 L 5.264683723449707 2.541083097457886 L 4.182577133178711 0.7500028610229492 L 1.95836877822876 0.7500028610229492 M 1.535232543945312 2.86102294921875e-06 L 4.605712890625 2.86102294921875e-06 L 6.140942573547363 2.541083097457886 L 4.605712890625 5.082163333892822 L 1.535232543945312 5.082163333892822 L 2.86102294921875e-06 2.541083097457886 L 1.535232543945312 2.86102294921875e-06 Z" stroke="none" fill="#a7a7a7"/>
        </g>
        <g id="Polygon_25" data-name="Polygon 25" transform="matrix(0.809, 0.588, -0.588, 0.809, 3.727, 18.06)" fill="none" stroke-linecap="round" stroke-linejoin="round">
          <path d="M2.859,0l.953,1.588L2.859,3.176H.953L0,1.588.953,0Z" stroke="none"/>
          <path d="M 1.377544641494751 0.7499966621398926 L 0.8746407032012939 1.588176608085632 L 1.377544641494751 2.426356554031372 L 2.43407678604126 2.426356554031372 L 2.936980724334717 1.588176608085632 L 2.43407678604126 0.7499966621398926 L 1.377544641494751 0.7499966621398926 M 0.9529006481170654 -3.337860107421875e-06 L 2.858720779418945 -3.337860107421875e-06 L 3.811620712280273 1.588176608085632 L 2.858720779418945 3.176356554031372 L 0.9529006481170654 3.176356554031372 L 7.152557373046875e-07 1.588176608085632 L 0.9529006481170654 -3.337860107421875e-06 Z" stroke="none" fill="#a7a7a7"/>
        </g>
        <g id="Polygon_26" data-name="Polygon 26" transform="matrix(0.809, 0.588, -0.588, 0.809, 6.576, 5.989)" fill="none" stroke-linecap="round" stroke-linejoin="round">
          <path d="M3.494,0,4.659,1.906,3.494,3.812H1.165L0,1.906,1.165,0Z" stroke="none"/>
          <path d="M 1.585290908813477 0.7500021457672119 L 0.8789634704589844 1.90581226348877 L 1.585290908813477 3.061622142791748 L 3.073358058929443 3.061622142791748 L 3.779685497283936 1.90581226348877 L 3.073358058929443 0.7500021457672119 L 1.585290908813477 0.7500021457672119 M 1.164664506912231 2.145767211914062e-06 L 3.493984460830688 2.145767211914062e-06 L 4.658644676208496 1.90581226348877 L 3.493984460830688 3.811622381210327 L 1.164664506912231 3.811622381210327 L 4.291534423828125e-06 1.90581226348877 L 1.164664506912231 2.145767211914062e-06 Z" stroke="none" fill="#a7a7a7"/>
        </g>
        <g id="Polygon_27" data-name="Polygon 27" transform="matrix(0.809, 0.588, -0.588, 0.809, 1.494, 8.901)" fill="none" stroke-linecap="round" stroke-linejoin="round">
          <path d="M2.382,0l.794,1.271L2.382,2.541H.794L0,1.271.794,0Z" stroke="none"/>
          <path d="M 0.9326479434967041 0.2500014305114746 L 0.2948086261749268 1.270541548728943 L 0.9326479434967041 2.291081428527832 L 2.243703365325928 2.291081428527832 L 2.881542921066284 1.270541548728943 L 2.243703365325928 0.2500014305114746 L 0.9326479434967041 0.2500014305114746 M 0.7940857410430908 1.430511474609375e-06 L 2.38226580619812 1.430511474609375e-06 L 3.176355838775635 1.270541548728943 L 2.38226580619812 2.541081666946411 L 0.7940857410430908 2.541081666946411 L -4.291534423828125e-06 1.270541548728943 L 0.7940857410430908 1.430511474609375e-06 Z" stroke="none" fill="#a7a7a7"/>
        </g>
        <g id="Polygon_28" data-name="Polygon 28" transform="matrix(0.809, 0.588, -0.588, 0.809, 3.282, 23.418)" fill="none" stroke-linecap="round" stroke-linejoin="round">
          <path d="M2.382,0l.794,1.271L2.382,2.541H.794L0,1.271.794,0Z" stroke="none"/>
          <path d="M 0.9326479434967041 0.2500014305114746 L 0.2948086261749268 1.270541548728943 L 0.9326479434967041 2.291081428527832 L 2.243703365325928 2.291081428527832 L 2.881542921066284 1.270541548728943 L 2.243703365325928 0.2500014305114746 L 0.9326479434967041 0.2500014305114746 M 0.7940857410430908 1.430511474609375e-06 L 2.38226580619812 1.430511474609375e-06 L 3.176355838775635 1.270541548728943 L 2.38226580619812 2.541081666946411 L 0.7940857410430908 2.541081666946411 L -4.291534423828125e-06 1.270541548728943 L 0.7940857410430908 1.430511474609375e-06 Z" stroke="none" fill="#a7a7a7"/>
        </g>
        <g id="Polygon_29" data-name="Polygon 29" transform="matrix(0.809, 0.588, -0.588, 0.809, 22.916, 5.183)" fill="none" stroke-linecap="round" stroke-linejoin="round">
          <path d="M2.382,0l.794,1.271L2.382,2.541H.794L0,1.271.794,0Z" stroke="none"/>
          <path d="M 0.9326479434967041 0.2500014305114746 L 0.2948086261749268 1.270541548728943 L 0.9326479434967041 2.291081428527832 L 2.243703365325928 2.291081428527832 L 2.881542921066284 1.270541548728943 L 2.243703365325928 0.2500014305114746 L 0.9326479434967041 0.2500014305114746 M 0.7940857410430908 1.430511474609375e-06 L 2.38226580619812 1.430511474609375e-06 L 3.176355838775635 1.270541548728943 L 2.38226580619812 2.541081666946411 L 0.7940857410430908 2.541081666946411 L -4.291534423828125e-06 1.270541548728943 L 0.7940857410430908 1.430511474609375e-06 Z" stroke="none" fill="#a7a7a7"/>
        </g>
        <g id="Polygon_30" data-name="Polygon 30" transform="matrix(0.809, 0.588, -0.588, 0.809, 27.311, 8.393)" fill="none" stroke-linecap="round" stroke-linejoin="round">
          <path d="M2.382,0l.794,1.271L2.382,2.541H.794L0,1.271.794,0Z" stroke="none"/>
          <path d="M 0.9326479434967041 0.2500014305114746 L 0.2948086261749268 1.270541548728943 L 0.9326479434967041 2.291081428527832 L 2.243703365325928 2.291081428527832 L 2.881542921066284 1.270541548728943 L 2.243703365325928 0.2500014305114746 L 0.9326479434967041 0.2500014305114746 M 0.7940857410430908 1.430511474609375e-06 L 2.38226580619812 1.430511474609375e-06 L 3.176355838775635 1.270541548728943 L 2.38226580619812 2.541081666946411 L 0.7940857410430908 2.541081666946411 L -4.291534423828125e-06 1.270541548728943 L 0.7940857410430908 1.430511474609375e-06 Z" stroke="none" fill="#a7a7a7"/>
        </g>
        <g id="Polygon_31" data-name="Polygon 31" transform="matrix(0.809, 0.588, -0.588, 0.809, 27.311, 13.921)" fill="none" stroke-linecap="round" stroke-linejoin="round">
          <path d="M2.382,0l.794,1.271L2.382,2.541H.794L0,1.271.794,0Z" stroke="none"/>
          <path d="M 0.9326479434967041 0.2500014305114746 L 0.2948086261749268 1.270541548728943 L 0.9326479434967041 2.291081428527832 L 2.243703365325928 2.291081428527832 L 2.881542921066284 1.270541548728943 L 2.243703365325928 0.2500014305114746 L 0.9326479434967041 0.2500014305114746 M 0.7940857410430908 1.430511474609375e-06 L 2.38226580619812 1.430511474609375e-06 L 3.176355838775635 1.270541548728943 L 2.38226580619812 2.541081666946411 L 0.7940857410430908 2.541081666946411 L -4.291534423828125e-06 1.270541548728943 L 0.7940857410430908 1.430511474609375e-06 Z" stroke="none" fill="#a7a7a7"/>
        </g>
        <g id="Polygon_32" data-name="Polygon 32" transform="matrix(0.809, 0.588, -0.588, 0.809, 18.232, 28.398)" fill="none" stroke-linecap="round" stroke-linejoin="round">
          <path d="M2.382,0l.794,1.271L2.382,2.541H.794L0,1.271.794,0Z" stroke="none"/>
          <path d="M 0.9326479434967041 0.2500014305114746 L 0.2948086261749268 1.270541548728943 L 0.9326479434967041 2.291081428527832 L 2.243703365325928 2.291081428527832 L 2.881542921066284 1.270541548728943 L 2.243703365325928 0.2500014305114746 L 0.9326479434967041 0.2500014305114746 M 0.7940857410430908 1.430511474609375e-06 L 2.38226580619812 1.430511474609375e-06 L 3.176355838775635 1.270541548728943 L 2.38226580619812 2.541081666946411 L 0.7940857410430908 2.541081666946411 L -4.291534423828125e-06 1.270541548728943 L 0.7940857410430908 1.430511474609375e-06 Z" stroke="none" fill="#a7a7a7"/>
        </g>
        <g id="Polygon_22" data-name="Polygon 22" transform="matrix(0.809, 0.588, -0.588, 0.809, 22.33, 9.106)" fill="none" stroke-linecap="round" stroke-linejoin="round">
          <path d="M3.97,0,5.294,2.223,3.97,4.447H1.323L0,2.223,1.323,0Z" stroke="none"/>
          <path d="M 1.749860525131226 0.7499973773956299 L 0.8728084564208984 2.223447322845459 L 1.749860525131226 3.696897268295288 L 3.544058322906494 3.696897268295288 L 4.4211106300354 2.223447322845459 L 3.544058322906494 0.7499973773956299 L 1.749860525131226 0.7499973773956299 M 1.323479652404785 -2.86102294921875e-06 L 3.970439434051514 -2.86102294921875e-06 L 5.293919563293457 2.223447322845459 L 3.970439434051514 4.446897506713867 L 1.323479652404785 4.446897506713867 L -4.76837158203125e-07 2.223447322845459 L 1.323479652404785 -2.86102294921875e-06 Z" stroke="none" fill="#a7a7a7"/>
        </g>
        <g id="Polygon_23" data-name="Polygon 23" transform="matrix(0.809, 0.588, -0.588, 0.809, 23.719, 22.235)" fill="none" stroke-linecap="round" stroke-linejoin="round">
          <path d="M3.018,0,4.023,1.694,3.018,3.388H1.006L0,1.694,1.006,0Z" stroke="none"/>
          <path d="M 1.432773351669312 0.749995231628418 L 0.8722367286682129 1.694055318832397 L 1.432773351669312 2.638115406036377 L 2.590605497360229 2.638115406036377 L 3.151142120361328 1.694055318832397 L 2.590605497360229 0.749995231628418 L 1.432773351669312 0.749995231628418 M 1.005849361419678 -4.76837158203125e-06 L 3.017529487609863 -4.76837158203125e-06 L 4.023379325866699 1.694055318832397 L 3.017529487609863 3.388115406036377 L 1.005849361419678 3.388115406036377 L -4.76837158203125e-07 1.694055318832397 L 1.005849361419678 -4.76837158203125e-06 Z" stroke="none" fill="#a7a7a7"/>
        </g>
        <path id="Path_1138" data-name="Path 1138" d="M4876.216-2927.885l2.211-.877" transform="translate(-4873.032 2938.348)" fill="none" stroke="#a7a7a7" stroke-width="0.3"/>
        <path id="Path_1139" data-name="Path 1139" d="M4901.71-2926.69l2.578,3.754" transform="translate(-4892.913 2936.715)" fill="none" stroke="#a7a7a7" stroke-width="1"/>
        <path id="Path_1140" data-name="Path 1140" d="M4934.244-2947.491l-.351,6.423" transform="translate(-4918.496 2953.111)" fill="none" stroke="#a7a7a7" stroke-width="1"/>
        <path id="Path_1141" data-name="Path 1141" d="M4950.136-2909.87l2.316-1.158" transform="translate(-4931.299 2924.37)" fill="none" stroke="#a7a7a7" stroke-width="1"/>
        <path id="Path_1142" data-name="Path 1142" d="M4949.142-2883.6l4.352,4.6" transform="translate(-4930.515 2902.748)" fill="none" stroke="#a7a7a7" stroke-width="1"/>
        <path id="Path_1143" data-name="Path 1143" d="M4929.3-2875.476l-.211,3.334" transform="translate(-4914.706 2896.345)" fill="none" stroke="#a7a7a7" stroke-width="1"/>
        <path id="Path_1144" data-name="Path 1144" d="M4888.811-2886.543l5.089-1.86" transform="translate(-4882.959 2906.536)" fill="none" stroke="#a7a7a7" stroke-width="1"/>
        <path id="Path_1145" data-name="Path 1145" d="M4880.094-2869.327l-.3,1.971" transform="translate(-4875.854 2891.499)" fill="none" stroke="#a7a7a7" stroke-width="0.3"/>
        <path id="Path_1146" data-name="Path 1146" d="M4971.4-2932.781l.114-1.619" transform="translate(-4948.057 2942.792)" fill="none" stroke="#a7a7a7" stroke-width="0.3"/>
        <path id="Path_1147" data-name="Path 1147" d="M4981.2-2921.457l1.37-.773" transform="translate(-4955.911 2932.988)" fill="none" stroke="#a7a7a7" stroke-width="0.3"/>
        <path id="Path_1148" data-name="Path 1148" d="M4980.224-2908.726l1.565,1.214" transform="translate(-4955.028 2922.619)" fill="none" stroke="#a7a7a7" stroke-width="0.3"/>
        <path id="Path_1149" data-name="Path 1149" d="M4938.58-2839.925l1.256,1.183" transform="translate(-4922.19 2868.323)" fill="none" stroke="#a7a7a7" stroke-width="0.3"/>
      </g>
      <g id="Group_1126" data-name="Group 1126" transform="translate(0 0)">
        <path id="Union_1" data-name="Union 1" d="M7.024,26.229.326,14.648a2,2,0,0,1,1.732-3H4.52V2a2,2,0,0,1,2-2h4.47a2,2,0,0,1,2,2v9.647h2.462a2,2,0,0,1,1.732,3l-6.7,11.581a2,2,0,0,1-3.462,0Z" transform="translate(36.245)" fill="#ed207b"/>
        <path id="Union_2" data-name="Union 2" d="M6.52,27.3a2,2,0,0,1-2-2V15.656H2.057a2,2,0,0,1-1.731-3l6.7-11.581a2,2,0,0,1,3.462,0l6.7,11.581a2,2,0,0,1-1.732,3H12.99V25.3a2,2,0,0,1-2,2Z" transform="translate(36.245 62.828)" fill="#ed1d30"/>
        <path id="Union_3" data-name="Union 3" d="M7.024,26.229.326,14.648a2,2,0,0,1,1.732-3H4.52V2a2,2,0,0,1,2-2h4.47a2,2,0,0,1,2,2v9.647h2.462a2,2,0,0,1,1.732,3l-6.7,11.581a2,2,0,0,1-3.462,0Z" transform="translate(90 36.245) rotate(90)" fill="#00a5e4"/>
        <path id="Union_4" data-name="Union 4" d="M6.52,27.3a2,2,0,0,1-2-2V15.656H2.057a2,2,0,0,1-1.731-3l6.7-11.581a2,2,0,0,1,3.462,0l6.7,11.581a2,2,0,0,1-1.732,3H12.99V25.3a2,2,0,0,1-2,2Z" transform="translate(27.301 36.375) rotate(90)" fill="#cedd3b"/>
        <path id="Union_1-2" data-name="Union 1" d="M7.024,26.229.326,14.648a2,2,0,0,1,1.732-3H4.52V2a2,2,0,0,1,2-2h4.47a2,2,0,0,1,2,2v9.647h2.462a2,2,0,0,1,1.732,3l-6.7,11.581a2,2,0,0,1-3.462,0Z" transform="translate(70.629 6.99) rotate(45)" fill="#36b449"/>
        <path id="Union_2-2" data-name="Union 2" d="M6.52,27.3a2,2,0,0,1-2-2V15.656H2.057a2,2,0,0,1-1.731-3l6.7-11.581a2,2,0,0,1,3.462,0l6.7,11.581a2,2,0,0,1-1.732,3H12.99V25.3a2,2,0,0,1-2,2Z" transform="translate(26.294 51.454) rotate(45)" fill="#f99d1d"/>
        <path id="Union_3-2" data-name="Union 3" d="M7.024,26.229.327,14.648a2,2,0,0,1,1.731-3H4.52V2a2,2,0,0,1,2-2h4.47a2,2,0,0,1,2,2v9.647h2.462a2,2,0,0,1,1.732,3l-6.7,11.581a2,2,0,0,1-3.463,0Z" transform="translate(83.011 70.759) rotate(135)" fill="#723d97"/>
        <path id="Union_4-2" data-name="Union 4" d="M6.52,27.3a2,2,0,0,1-2-2V15.656H2.057a2,2,0,0,1-1.731-3l6.7-11.581a2,2,0,0,1,3.462,0l6.7,11.581a2,2,0,0,1-1.732,3H12.99V25.3a2,2,0,0,1-2,2Z" transform="translate(38.676 26.425) rotate(135)" fill="#293991"/>
      </g>
    </g>
    <text id="MOVING_TO_THE_CORE-2" data-name="MOVING 
TO THE CORE" transform="translate(1713 920.709)" fill="#fff" font-size="19" font-family="SegoeUI-SemiboldItalic, Segoe UI" font-weight="600" font-style="italic"><tspan x="-40.728" y="0">MOVING </tspan><tspan x="-58.772" y="18">TO THE CORE</tspan></text>
  </g>
</svg>
