<svg xmlns="http://www.w3.org/2000/svg" width="346.28" height="741.366" viewBox="0 0 346.28 741.366">
  <g id="Unit_team" data-name="Unit team" transform="translate(-1539.845 -66.32)">
    <path id="Path_1223" data-name="Path 1223" d="M-10602.84-5820.121l-26.866,21.922h-57.157v-21.687Z" transform="translate(12229.241 6604.738)" fill="#1b3b48" stroke="#15495e" stroke-width="1"/>
    <path id="Path_1224" data-name="Path 1224" d="M7,22.02H0L27,0h7Z" transform="translate(1606.401 785.167)" fill="#1b3b48" stroke="#15495e" stroke-width="1" opacity="0.8"/>
    <path id="Path_1225" data-name="Path 1225" d="M7,22.02H0L27,0h7Z" transform="translate(1619.401 785.167)" fill="#1b3b48" stroke="#15495e" stroke-width="1" opacity="0.5"/>
    <path id="Path_1222" data-name="Path 1222" d="M-10686.863-5798.2l26.866-21.921h57.157v21.687Z" transform="translate(12488.218 5887.585)" fill="#1b3b48" stroke="#15495e" stroke-width="1"/>
    <path id="Path_1226" data-name="Path 1226" d="M7,22.02H0L27,0h7Z" transform="translate(1632.401 785.167)" fill="#1b3b48" stroke="#15495e" stroke-width="1" opacity="0.3"/>
    <path id="Path_1219" data-name="Path 1219" d="M27,0h7L7,22.019H0Z" transform="translate(1787.354 66.82)" fill="#1b3b48" stroke="#15495e" stroke-width="1" opacity="0.8"/>
    <path id="Path_1220" data-name="Path 1220" d="M27,0h7L7,22.019H0Z" transform="translate(1774.354 66.82)" fill="#1b3b48" stroke="#15495e" stroke-width="1" opacity="0.5"/>
    <path id="Path_1221" data-name="Path 1221" d="M27,0h7L7,22.019H0Z" transform="translate(1761.354 66.82)" fill="#1b3b48" stroke="#15495e" stroke-width="1" opacity="0.3"/>
    <path id="Path_1200" data-name="Path 1200" d="M-10620.971-5960.614h-295.7l-47.32,45.968v649.264h296.88l46.047-46.047Z" transform="translate(12506.486 6050)" fill="#142b34" stroke="#15495e" stroke-width="1"/>
    <path id="Path_1201" data-name="Path 1201" d="M8.074-5.806,9,0-24.819,34.864h-7.395Z" transform="translate(1876.592 752)" fill="#1b3b48" stroke="#15495e" stroke-width="1" opacity="0.8"/>
    <path id="Path_1202" data-name="Path 1202" d="M-3.926,6.194-3,12-24.819,34.864h-7.395Z" transform="translate(1888.592 752)" fill="#1b3b48" stroke="#15495e" stroke-width="1" opacity="0.7"/>
    <path id="Path_1203" data-name="Path 1203" d="M-16.926,19.194-16,25l-8.819,9.864h-7.395Z" transform="translate(1901.592 752)" fill="#1b3b48" stroke="#15495e" stroke-width="1" opacity="0.5"/>
    <path id="Path_1204" data-name="Path 1204" d="M-31.288,34.864l-.926-5.806L1.605-5.806H9Z" transform="translate(1572.592 96)" fill="#1b3b48" stroke="#15495e" stroke-width="1" opacity="0.8"/>
    <path id="Path_1205" data-name="Path 1205" d="M-31.288,34.864l-.926-5.806L-10.395,6.194H-3Z" transform="translate(1572.592 84)" fill="#1b3b48" stroke="#15495e" stroke-width="1" opacity="0.7"/>
    <path id="Path_1206" data-name="Path 1206" d="M-31.288,34.864l-.926-5.806,8.819-9.864H-16Z" transform="translate(1572.592 71)" fill="#1b3b48" stroke="#15495e" stroke-width="1" opacity="0.5"/>
  </g>
</svg>
