<svg xmlns="http://www.w3.org/2000/svg" width="346.77" height="362.006" viewBox="0 0 346.77 362.006">
  <g id="Left_side_container_title" data-name="Left side container title" transform="translate(-46.253 -236.68)">
    <path id="Path_1189" data-name="Path 1189" d="M-10602.84-5820.121l-26.866,21.922h-57.157v-21.687Z" transform="translate(10736.363 6395.738)" fill="#1b3b48" stroke="#15495e" stroke-width="1"/>
    <path id="Path_1186" data-name="Path 1186" d="M7,22.02H0L27,0h7Z" transform="translate(113.523 576.166)" fill="#1b3b48" stroke="#15495e" stroke-width="1" opacity="0.8"/>
    <path id="Path_1187" data-name="Path 1187" d="M7,22.02H0L27,0h7Z" transform="translate(126.523 576.166)" fill="#1b3b48" stroke="#15495e" stroke-width="1" opacity="0.5"/>
    <path id="Path_1178" data-name="Path 1178" d="M-10686.863-5798.2l26.866-21.921h57.157v21.687Z" transform="translate(10995.363 6057.945)" fill="#1b3b48" stroke="#15495e" stroke-width="1"/>
    <path id="Path_1188" data-name="Path 1188" d="M7,22.02H0L27,0h7Z" transform="translate(139.523 576.166)" fill="#1b3b48" stroke="#15495e" stroke-width="1" opacity="0.3"/>
    <path id="Path_1180" data-name="Path 1180" d="M27,0h7L7,22.019H0Z" transform="translate(294.5 237.18)" fill="#1b3b48" stroke="#15495e" stroke-width="1" opacity="0.8"/>
    <path id="Path_1181" data-name="Path 1181" d="M27,0h7L7,22.019H0Z" transform="translate(281.5 237.18)" fill="#1b3b48" stroke="#15495e" stroke-width="1" opacity="0.5"/>
    <path id="Path_1185" data-name="Path 1185" d="M27,0h7L7,22.019H0Z" transform="translate(268.5 237.18)" fill="#1b3b48" stroke="#15495e" stroke-width="1" opacity="0.3"/>
    <path id="Path_1192" data-name="Path 1192" d="M8.074-5.806,9,0-24.819,34.864h-7.395Z" transform="translate(383 542)" fill="#1b3b48" stroke="#15495e" stroke-width="1" opacity="0.8"/>
    <path id="Path_1193" data-name="Path 1193" d="M-3.926,6.194-3,12-24.819,34.864h-7.395Z" transform="translate(395 542)" fill="#1b3b48" stroke="#15495e" stroke-width="1" opacity="0.7"/>
    <path id="Path_1194" data-name="Path 1194" d="M-16.926,19.194-16,25l-8.819,9.864h-7.395Z" transform="translate(408 542)" fill="#1b3b48" stroke="#15495e" stroke-width="1" opacity="0.5"/>
    <path id="Path_1195" data-name="Path 1195" d="M-31.288,34.864l-.926-5.806L1.605-5.806H9Z" transform="translate(79 266)" fill="#1b3b48" stroke="#15495e" stroke-width="1" opacity="0.8"/>
    <path id="Path_1196" data-name="Path 1196" d="M-31.288,34.864l-.926-5.806L-10.395,6.194H-3Z" transform="translate(79 254)" fill="#1b3b48" stroke="#15495e" stroke-width="1" opacity="0.7"/>
    <path id="Path_1197" data-name="Path 1197" d="M-31.288,34.864l-.926-5.806,8.819-9.864H-16Z" transform="translate(79 241)" fill="#1b3b48" stroke="#15495e" stroke-width="1" opacity="0.5"/>
  </g>
</svg>
