<svg xmlns="http://www.w3.org/2000/svg" width="346.179" height="81.299" viewBox="0 0 346.179 81.299">
  <g id="Sidepanel-Top" transform="translate(-1539.845 -66.318)">
    <path id="Path_1215" data-name="Path 1215" d="M-10686.863-5798.2l26.866-21.921h57.157v21.686Z" transform="translate(12488.363 5887.585)" fill="#1b3b48" stroke="#15495e" stroke-width="1"/>
    <g id="Top_right" data-name="Top right">
      <path id="Path_1216" data-name="Path 1216" d="M27,0h7L7,22.019H0Z" transform="translate(1787.5 66.818)" fill="#1b3b48" stroke="#15495e" stroke-width="1" opacity="0.8"/>
      <path id="Path_1217" data-name="Path 1217" d="M27,0h7L7,22.019H0Z" transform="translate(1774.5 66.818)" fill="#1b3b48" stroke="#15495e" stroke-width="1" opacity="0.5"/>
      <path id="Path_1218" data-name="Path 1218" d="M27,0h7L7,22.019H0Z" transform="translate(1761.5 66.818)" fill="#1b3b48" stroke="#15495e" stroke-width="1" opacity="0.3"/>
    </g>
    <path id="Path_1200" data-name="Path 1200" d="M-10620.971-5960.614h-295.7l-47.32,45.164v11.066l342.927-.046Z" transform="translate(12506.486 6050)" fill="#142b34" stroke="#15495e" stroke-width="1"/>
    <g id="Top_LEft" data-name="Top LEft">
      <path id="Path_1204" data-name="Path 1204" d="M-31.288,34.864l-.926-5.806L1.605-5.806H9Z" transform="translate(1572.592 96)" fill="#1b3b48" stroke="#15495e" stroke-width="1" opacity="0.8"/>
      <path id="Path_1205" data-name="Path 1205" d="M-31.288,34.864l-.926-5.806L-10.395,6.194H-3Z" transform="translate(1572.592 84)" fill="#1b3b48" stroke="#15495e" stroke-width="1" opacity="0.7"/>
      <path id="Path_1206" data-name="Path 1206" d="M-31.288,34.864l-.926-5.806,8.819-9.864H-16Z" transform="translate(1572.592 71)" fill="#1b3b48" stroke="#15495e" stroke-width="1" opacity="0.5"/>
    </g>
    <path id="Path_1245" data-name="Path 1245" d="M-10620.971-5960.614h-295.7l-47.32,45.968v11.264l342.927-.047Z" transform="translate(12506.486 6051)" fill="#142b34"/>
  </g>
</svg>
