<svg  width="346.28" height="741.368" viewBox="0 0 346.28 741.368">
  <g id="_24_7" data-name="24/7" transform="translate(-1539.845 -66.318)">
    <path id="Path_1213" data-name="Path 1213" d="M-10602.84-5820.121l-26.866,21.922h-57.157v-21.687Z" transform="translate(12229.363 6604.738)" fill="#1b3b48" stroke="#15495e" stroke-width="1"/>
    <path id="Path_1215" data-name="Path 1215" d="M-10686.863-5798.2l26.866-21.921h57.157v21.686Z" transform="translate(12488.363 5887.585)" fill="#1b3b48" stroke="#15495e" stroke-width="1"/>
    <path id="Path_1214" data-name="Path 1214" d="M7,22.02H0L27,0h7Z" transform="translate(1606.523 785.167)" fill="#1b3b48" stroke="#15495e" stroke-width="1" opacity="0.8"/>
    <path id="Path_1216" data-name="Path 1216" d="M27,0h7L7,22.019H0Z" transform="translate(1787.5 66.818)" fill="#1b3b48" stroke="#15495e" stroke-width="1" opacity="0.8"/>
    <path id="Path_1211" data-name="Path 1211" d="M7,22.02H0L27,0h7Z" transform="translate(1619.523 785.167)" fill="#1b3b48" stroke="#15495e" stroke-width="1" opacity="0.5"/>
    <path id="Path_1217" data-name="Path 1217" d="M27,0h7L7,22.019H0Z" transform="translate(1774.5 66.818)" fill="#1b3b48" stroke="#15495e" stroke-width="1" opacity="0.5"/>
    <path id="Path_1212" data-name="Path 1212" d="M7,22.02H0L27,0h7Z" transform="translate(1632.523 785.167)" fill="#1b3b48" stroke="#15495e" stroke-width="1" opacity="0.3"/>
    <path id="Path_1218" data-name="Path 1218" d="M27,0h7L7,22.019H0Z" transform="translate(1761.5 66.818)" fill="#1b3b48" stroke="#15495e" stroke-width="1" opacity="0.3"/>
    <path id="Path_1200" data-name="Path 1200" d="M-10620.971-5960.614h-295.7l-47.32,45.968v649.264h296.88l46.047-46.047Z" transform="translate(12506.486 6050)" fill="#142b34" stroke="#15495e" stroke-width="1"/>
    <text id="Closest_to_the_product_Where_value_is_created_for_Celanese_produces_product" data-name="Closest to the product 
​​​​​​​​​​​​​​Where value is created for Celanese – produces product" transform="translate(1581.592 169)" fill="#63828f" font-size="16" font-family="ProximaNova-MediumIt, Proxima Nova" font-weight="500" font-style="italic"><tspan x="0" y="15">Closest to the product </tspan><tspan x="0" y="39">​​​​​​​​​​​​​​Where value is created for Celanese – </tspan><tspan x="0" y="63">produces product</tspan></text>
    <path id="Path_1201" data-name="Path 1201" d="M8.074-5.806,9,0-24.819,34.864h-7.395Z" transform="translate(1876.592 752)" fill="#1b3b48" stroke="#15495e" stroke-width="1" opacity="0.8"/>
    <path id="Path_1202" data-name="Path 1202" d="M-3.926,6.194-3,12-24.819,34.864h-7.395Z" transform="translate(1888.592 752)" fill="#1b3b48" stroke="#15495e" stroke-width="1" opacity="0.7"/>
    <path id="Path_1203" data-name="Path 1203" d="M-16.926,19.194-16,25l-8.819,9.864h-7.395Z" transform="translate(1901.592 752)" fill="#1b3b48" stroke="#15495e" stroke-width="1" opacity="0.5"/>
    <path id="Path_1204" data-name="Path 1204" d="M-31.288,34.864l-.926-5.806L1.605-5.806H9Z" transform="translate(1572.592 96)" fill="#1b3b48" stroke="#15495e" stroke-width="1" opacity="0.8"/>
    <path id="Path_1205" data-name="Path 1205" d="M-31.288,34.864l-.926-5.806L-10.395,6.194H-3Z" transform="translate(1572.592 84)" fill="#1b3b48" stroke="#15495e" stroke-width="1" opacity="0.7"/>
    <path id="Path_1206" data-name="Path 1206" d="M-31.288,34.864l-.926-5.806,8.819-9.864H-16Z" transform="translate(1572.592 71)" fill="#1b3b48" stroke="#15495e" stroke-width="1" opacity="0.5"/>
    <text id="_24_7_Team" data-name="24/7 Team" transform="translate(1582.878 144.5)" fill="#1d95c5" font-size="24" font-family="ProximaNova-SemiboldIt, Proxima Nova" font-weight="600" font-style="italic"><tspan x="0" y="0">24/7 Team</tspan></text>
    <line id="Line_300" data-name="Line 300" x2="292" transform="translate(1577.378 157)" fill="none" stroke="#15495e" stroke-width="1"/>
    <g id="_24_7_team_dashboard" data-name="24/7 team dashboard">
      <rect id="Rectangle_5345" data-name="Rectangle 5345" width="250" height="35" rx="5" transform="translate(1589 307)" fill="#e75113"/>
      <text id="_24_7_Team_Dashboard-2" data-name="24/7 Team Dashboard" transform="translate(1645 330)" fill="#ffeaea" font-size="14" font-family="ProximaNova-Semibold, Proxima Nova" font-weight="600"><tspan x="0" y="0">24/7 Team Dashboard</tspan></text>
    </g>
  </g>
</svg>
